<?xml version="1.0" encoding="utf-8"?>
<!-- Generator: Adobe Illustrator 16.0.0, SVG Export Plug-In . SVG Version: 6.00 Build 0)  -->
<!DOCTYPE svg PUBLIC "-//W3C//DTD SVG 1.1//EN" "http://www.w3.org/Graphics/SVG/1.1/DTD/svg11.dtd">
<svg version="1.1" id="Layer_1" xmlns="http://www.w3.org/2000/svg" xmlns:xlink="http://www.w3.org/1999/xlink" x="0px" y="0px"
	 width="17.371px" height="18px" viewBox="2.133 -1.443 17.371 18" enable-background="new 2.133 -1.443 17.371 18"
	 xml:space="preserve">
<rect x="8.61" y="44.745" fill="none" width="6.139" height="17.94"/>
<text transform="matrix(1 0 0 1 8.6104 60.167)" fill="#E96633" font-family="'FreightSansBold'" font-size="22.68">i</text>
<g>
	<path fill="#E96633" d="M12.668,1.546c0,0.605-0.182,1.066-0.544,1.384c-0.363,0.317-0.87,0.477-1.52,0.477
		c-0.635,0-1.138-0.159-1.509-0.477S8.54,2.152,8.54,1.546c0-0.619,0.185-1.088,0.556-1.405c0.371-0.318,0.874-0.477,1.509-0.477
		c0.649,0,1.156,0.158,1.52,0.477C12.486,0.458,12.668,0.927,12.668,1.546z M8.858,15.45V5.084l3.515-0.431V15.45H8.858z"/>
</g>
</svg>
