<?xml version="1.0" encoding="utf-8"?>
<!-- Generator: Adobe Illustrator 16.0.0, SVG Export Plug-In . SVG Version: 6.00 Build 0)  -->
<!DOCTYPE svg PUBLIC "-//W3C//DTD SVG 1.1//EN" "http://www.w3.org/Graphics/SVG/1.1/DTD/svg11.dtd">
<svg version="1.1" id="Layer_1" xmlns="http://www.w3.org/2000/svg" xmlns:xlink="http://www.w3.org/1999/xlink" x="0px" y="0px"
	 width="21.842px" height="22.167px" viewBox="0 -3.608 21.842 22.167" enable-background="new 0 -3.608 21.842 22.167"
	 xml:space="preserve">
<rect x="8.61" y="173.745" fill="none" width="6.139" height="17.94"/>
<text transform="matrix(1 0 0 1 8.6104 189.167)" fill="#E96633" font-family="'FreightSansBold'" font-size="22.68">i</text>
<polygon fill="none" stroke="#E96633" stroke-width="1.4175" stroke-miterlimit="10" points="2.482,-1.563 2.062,1.538 3.039,3.133 
	3.182,4.401 4.376,6.069 5.272,6.466 5.572,6.963 5.203,7.152 5.268,7.886 8.875,13.048 9.938,13.257 13.103,15.208 13.956,16.632 
	18.306,16.225 18.914,13.39 18.009,11.977 9.226,4.317 9.231,-1.568 "/>
<g>
	<line fill="none" stroke="#E96633" stroke-miterlimit="10" x1="3.921" y1="128.724" x2="3.921" y2="143.724"/>
	<line fill="none" stroke="#E96633" stroke-miterlimit="10" x1="7.921" y1="128.724" x2="7.921" y2="143.724"/>
	<line fill="none" stroke="#E96633" stroke-miterlimit="10" x1="16.921" y1="128.724" x2="16.921" y2="143.724"/>
	<line fill="none" stroke="#E96633" stroke-miterlimit="10" x1="13.921" y1="128.724" x2="13.921" y2="143.724"/>
</g>
</svg>
