<?xml version="1.0" encoding="utf-8"?>
<!-- Generator: Adobe Illustrator 16.0.0, SVG Export Plug-In . SVG Version: 6.00 Build 0)  -->
<!DOCTYPE svg PUBLIC "-//W3C//DTD SVG 1.1//EN" "http://www.w3.org/Graphics/SVG/1.1/DTD/svg11.dtd">
<svg version="1.1" id="Layer_1" xmlns="http://www.w3.org/2000/svg" xmlns:xlink="http://www.w3.org/1999/xlink" x="0px" y="0px"
	 width="92.745px" height="98.13px" viewBox="0 0 92.745 98.13" enable-background="new 0 0 92.745 98.13" xml:space="preserve">
<g>
	<path fill="#E96633" d="M11.087-137.789l46.842,0.054l2.123,36.415l-48.609,6.525L8.5-99.705l-0.146-0.244l-0.227-0.174
		l-4.023-3.091l-4.117-7.523l-5.767-16.552l2.719-2.088l4.282,0.99l2.681,5.092l0.216,0.411l0.41,0.217l7.244,3.832l3.082,1.63
		l-0.936-3.358l-1.941-6.971L11.087-137.789 M9.451-139.291l1.044,12.024l1.979,7.105l-7.244-3.832l-3.001-5.7l-5.641-1.305
		l-4.14,3.18l6.164,17.692l4.328,7.909l4.274,3.283l3.451,5.757l50.966-6.842l-2.286-39.215L9.451-139.291L9.451-139.291z"/>
</g>
<g>
	<path fill="#E96633" d="M4.003-104.534l2.179,0.009l2.638,0.772l2.545,5.756l0.478,1.081l1.162-0.211l4.55-0.827l22.422-4.704
		l13.999-0.04l2.883,2.805l-4.615,10.247l-0.312,0.695l0.377,0.663l1.969,3.459l-0.029,22.381L0.708-62.92l-2.56-8.628l4.323-19.843
		l0.032-0.148l0.002-0.151l0.134-9.995l0.461-0.136l1.247-0.369l-0.188-1.287L4.003-104.534 M2.267-106.042l0.408,2.781l-1.52,0.45
		l-0.149,11.1L-3.4-71.492l2.985,10.062l56.158,0.496l0.033-24.291L53.61-89.03l5.05-11.205l-4.075-3.965l-14.765,0.042
		l-22.572,4.735l-4.51,0.819l-2.827-6.393l-3.509-1.027L2.267-106.042L2.267-106.042z"/>
</g>
<g>
	<path fill="#E96633" d="M39.793,1.748L4.955,1.771L2.776,17.774l5.062,8.228l0.742,6.557l6.153,8.607l4.625,2.05l1.537,2.563
		L19,46.749l0.333,3.792l18.614,26.633l5.492,1.08l16.322,10.078l4.402,7.34l22.443-2.098l3.146-14.637l-4.664-7.307L39.767,32.126
		L39.793,1.748L39.793,1.748z"/>
</g>
</svg>
