<?xml version="1.0" encoding="utf-8"?>
<!-- Generator: Adobe Illustrator 16.0.0, SVG Export Plug-In . SVG Version: 6.00 Build 0)  -->
<!DOCTYPE svg PUBLIC "-//W3C//DTD SVG 1.1//EN" "http://www.w3.org/Graphics/SVG/1.1/DTD/svg11.dtd">
<svg version="1.1" id="Layer_1" xmlns="http://www.w3.org/2000/svg" xmlns:xlink="http://www.w3.org/1999/xlink" x="0px" y="0px"
	 width="17.25px" height="16.875px" viewBox="90.198 8.935 17.25 16.875" enable-background="new 90.198 8.935 17.25 16.875"
	 xml:space="preserve">
<g>
	<g>
		<polygon fill="#99BED2" points="107.047,13.211 104.856,13.211 104.856,15.402 103.764,15.402 103.764,13.211 101.574,13.211 
			101.574,12.118 103.764,12.118 103.764,9.929 104.856,9.929 104.856,12.118 107.047,12.118 		"/>
		<path fill="#99BED2" d="M99.274,18.925c-0.438-0.331-1.396-1.01-1.396-1.463c0-0.529,0.15-0.791,0.951-1.417
			c0.824-0.643,1.404-1.931,1.404-2.981c0-1.143-0.467-3.129-1.348-3.129h1.244l1.064-1c0,0-3.506,0-4.75,0
			c-2.408,0-4.412,2.162-4.412,4.116c0,1.997,1.318,3.785,3.584,3.785c0.156,0,0.311,0.088,0.459,0.075
			c-0.146,0.286-0.25,0.647-0.25,0.979c0,0.551,0.301,0.893,0.68,1.26c-0.283,0-0.561,0.016-0.863,0.016
			c-2.754,0-4.688,1.905-4.688,3.728c0,1.792,2.33,2.918,5.09,2.918c3.141,0,5.076-1.783,5.076-3.575
			C101.119,20.796,100.807,20.072,99.274,18.925z M93.815,13.409c-0.223-1.68,0.637-2.967,1.918-2.928
			c1.275,0.038,2.369,1.417,2.592,3.098c0.221,1.679-0.514,2.76-1.795,2.725C95.252,16.261,94.035,15.088,93.815,13.409z
			 M96.031,25.019c-1.904,0-3.283-1.203-3.283-2.655c0-1.42,1.613-2.646,3.518-2.626c0.449,0.007,0.863,0.08,1.236,0.201
			c1.037,0.717,1.871,1.166,2.08,1.989c0.041,0.164,0.062,0.335,0.062,0.51C99.645,23.886,98.709,25.019,96.031,25.019z"/>
	</g>
</g>
</svg>
