<?xml version="1.0" encoding="utf-8"?>
<!-- Generator: Adobe Illustrator 16.0.0, SVG Export Plug-In . SVG Version: 6.00 Build 0)  -->
<!DOCTYPE svg PUBLIC "-//W3C//DTD SVG 1.1//EN" "http://www.w3.org/Graphics/SVG/1.1/DTD/svg11.dtd">
<svg version="1.1" id="Layer_1" xmlns="http://www.w3.org/2000/svg" xmlns:xlink="http://www.w3.org/1999/xlink" x="0px" y="0px"
	 width="68.53px" height="49.372px" viewBox="-6.469 0 68.53 49.372" enable-background="new -6.469 0 68.53 49.372"
	 xml:space="preserve">
<g>
	<path fill="#E96633" d="M11.087-137.789l46.842,0.054l2.124,36.415l-48.609,6.525L8.5-99.705l-0.146-0.244l-0.228-0.174
		l-4.022-3.091l-4.117-7.523l-5.767-16.552l2.719-2.088l4.282,0.99l2.681,5.092l0.217,0.411l0.409,0.217l7.244,3.832l3.082,1.63
		l-0.937-3.358l-1.94-6.971L11.087-137.789 M9.451-139.291l1.044,12.024l1.979,7.105l-7.244-3.832l-3.001-5.7l-5.642-1.305
		l-4.141,3.18l6.164,17.692l4.328,7.909l4.273,3.283l3.451,5.757l50.966-6.842l-2.286-39.215L9.451-139.291L9.451-139.291z"/>
</g>
<g>
	<path fill="#E96633" d="M2.267,1.958l0.407,2.781l-1.521,0.45l-0.148,11.1L-3.4,36.508l2.984,10.062l56.158,0.496l0.032-24.291
		L53.61,18.97L58.66,7.765L54.584,3.8L39.82,3.842L17.248,8.577l-4.511,0.818L9.91,3.003l-3.51-1.027L2.267,1.958L2.267,1.958z"/>
</g>
<g>
	<path fill="#E96633" d="M142.774,19.582l0.121,28.878v0.684l0.367,0.448l45.089,39.365l4.182,6.604l-2.807,12.957l-20.419,1.905
		l-3.92-6.528l-0.19-0.312l-0.312-0.191l-16.323-10.078l-0.231-0.144l-0.269-0.053l-4.897-0.964l-18.038-25.809l-0.209-2.387
		l0.995-0.509l1.43-0.729l-0.825-1.377l-1.537-2.562l-0.244-0.407l-0.436-0.192l-4.25-1.884l-5.688-7.959l-0.697-6.17l-0.037-0.332
		l-0.176-0.284l-4.78-7.771l2.003-14.175L142.774,19.582 M144.127,18.081l-34.839,0.023l-2.179,16.004l5.062,8.228l0.742,6.558
		l6.151,8.607l4.625,2.051l1.537,2.562l-1.896,0.969l0.333,3.792l18.613,26.634l5.492,1.079l16.323,10.079l4.4,7.339l22.444-2.097
		l3.146-14.637l-4.665-7.307L144.1,48.46L144.127,18.081L144.127,18.081z"/>
</g>
</svg>
