<?xml version="1.0" encoding="utf-8"?>
<!-- Generator: Adobe Illustrator 16.0.0, SVG Export Plug-In . SVG Version: 6.00 Build 0)  -->
<!DOCTYPE svg PUBLIC "-//W3C//DTD SVG 1.1//EN" "http://www.w3.org/Graphics/SVG/1.1/DTD/svg11.dtd">
<svg version="1.1" id="Layer_1" xmlns="http://www.w3.org/2000/svg" xmlns:xlink="http://www.w3.org/1999/xlink" x="0px" y="0px"
	 width="21.842px" height="16.447px" viewBox="0 0 21.842 16.447" enable-background="new 0 0 21.842 16.447" xml:space="preserve">
<rect x="8.61" y="173.745" fill="none" width="6.139" height="17.94"/>
<text transform="matrix(1 0 0 1 8.6104 189.167)" fill="#E96633" font-family="'FreightSansBold'" font-size="22.68">i</text>
<polygon fill="none" stroke="#E96633" stroke-width="1.4175" stroke-miterlimit="10" points="17.693,13.042 5.27,12.933 
	4.611,10.706 5.585,6.234 5.619,3.778 5.954,3.678 5.865,3.062 6.779,3.068 7.557,3.295 8.18,4.708 9.179,4.528 14.171,3.481 
	17.438,3.474 18.341,4.347 17.223,6.828 17.701,7.67 "/>
<polygon fill="none" stroke="#E96633" stroke-width="1.4175" stroke-miterlimit="10" points="2.482,85.437 2.062,88.538 
	3.039,90.133 3.182,91.401 4.376,93.069 5.272,93.466 5.572,93.963 5.203,94.152 5.268,94.886 8.875,100.048 9.938,100.257 
	13.103,102.208 13.956,103.632 18.306,103.225 18.914,100.39 18.009,98.977 9.226,91.317 9.231,85.432 "/>
<g>
	<line fill="none" stroke="#E96633" stroke-miterlimit="10" x1="3.921" y1="128.724" x2="3.921" y2="143.724"/>
	<line fill="none" stroke="#E96633" stroke-miterlimit="10" x1="7.921" y1="128.724" x2="7.921" y2="143.724"/>
	<line fill="none" stroke="#E96633" stroke-miterlimit="10" x1="16.921" y1="128.724" x2="16.921" y2="143.724"/>
	<line fill="none" stroke="#E96633" stroke-miterlimit="10" x1="13.921" y1="128.724" x2="13.921" y2="143.724"/>
</g>
</svg>
