<?xml version="1.0" encoding="utf-8"?>
<!-- Generator: Adobe Illustrator 16.0.0, SVG Export Plug-In . SVG Version: 6.00 Build 0)  -->
<!DOCTYPE svg PUBLIC "-//W3C//DTD SVG 1.1//EN" "http://www.w3.org/Graphics/SVG/1.1/DTD/svg11.dtd">
<svg version="1.1" id="Layer_1" xmlns="http://www.w3.org/2000/svg" xmlns:xlink="http://www.w3.org/1999/xlink" x="0px" y="0px"
	 width="62.06px" height="45.744px" viewBox="-3.4 18.08 62.06 45.744" enable-background="new -3.4 18.08 62.06 45.744"
	 xml:space="preserve">
<g>
	<path fill="#E96633" d="M11.087-137.789l46.841,0.054l2.124,36.415l-48.609,6.525L8.5-99.705l-0.146-0.244l-0.227-0.174
		l-4.023-3.091l-4.117-7.523l-5.767-16.552l2.719-2.088l4.282,0.99l2.681,5.092l0.216,0.411l0.41,0.217l7.244,3.832l3.082,1.63
		l-0.936-3.358l-1.941-6.971L11.087-137.789 M9.451-139.291l1.044,12.024l1.979,7.105l-7.244-3.832l-3.001-5.7l-5.641-1.305
		l-4.14,3.18l6.164,17.692l4.328,7.909l4.274,3.283l3.451,5.757l50.966-6.842l-2.287-39.215L9.451-139.291L9.451-139.291z"/>
</g>
<g>
	<path fill="#E96633" d="M4.003,19.466l2.179,0.009l2.638,0.772l2.545,5.756l0.478,1.081l1.162-0.211l4.55-0.827l22.422-4.704
		l13.999-0.04l2.883,2.805l-4.617,10.247l-0.313,0.695l0.377,0.663l1.969,3.459l-0.03,22.381L0.708,61.08l-2.56-8.629l4.323-19.842
		l0.032-0.148l0.002-0.151l0.134-9.995L3.1,22.178l1.247-0.369l-0.188-1.287L4.003,19.466 M2.267,17.958l0.408,2.781l-1.52,0.45
		l-0.149,11.1L-3.4,52.508l2.985,10.062l56.158,0.496l0.033-24.291L53.61,34.97l5.05-11.205L54.584,19.8L39.82,19.842l-22.572,4.735
		l-4.51,0.819L9.91,19.003l-3.509-1.027L2.267,17.958L2.267,17.958z"/>
</g>
<g>
	<path fill="#E96633" d="M142.774,19.582l0.121,28.878v0.683l0.367,0.449l45.089,39.365l4.181,6.604l-2.806,12.957l-20.419,1.907
		l-3.92-6.529l-0.19-0.313l-0.312-0.191l-16.323-10.079l-0.232-0.143l-0.268-0.053l-4.898-0.963l-18.038-25.809l-0.209-2.386
		l0.995-0.509l1.43-0.73l-0.826-1.377l-1.537-2.563l-0.244-0.407l-0.435-0.192l-4.25-1.884l-5.688-7.959l-0.698-6.17l-0.037-0.332
		l-0.176-0.285l-4.78-7.771l2.003-14.176L142.774,19.582 M144.127,18.081l-34.839,0.023l-2.178,16.004l5.062,8.228l0.742,6.557
		l6.152,8.608l4.625,2.05l1.537,2.563l-1.896,0.969l0.333,3.792l18.614,26.634l5.492,1.079l16.323,10.079l4.401,7.339l22.445-2.097
		l3.147-14.636l-4.665-7.306L144.1,48.46L144.127,18.081L144.127,18.081z"/>
</g>
</svg>
