<?xml version="1.0" encoding="utf-8"?>
<!-- Generator: Adobe Illustrator 16.0.0, SVG Export Plug-In . SVG Version: 6.00 Build 0)  -->
<!DOCTYPE svg PUBLIC "-//W3C//DTD SVG 1.1//EN" "http://www.w3.org/Graphics/SVG/1.1/DTD/svg11.dtd">
<svg version="1.1" id="Layer_1" xmlns="http://www.w3.org/2000/svg" xmlns:xlink="http://www.w3.org/1999/xlink" x="0px" y="0px"
	 width="12.465px" height="16.181px" viewBox="133.655 8.935 12.465 16.181" enable-background="new 133.655 8.935 12.465 16.181"
	 xml:space="preserve">
<g>
	<path fill="#99BED2" d="M141.129,20.65c-1,0-1.939-0.541-2.26-1.154c0,0-0.537,2.131-0.648,2.543
		c-0.402,1.454-1.584,2.909-1.674,3.026c-0.062,0.086-0.203,0.057-0.219-0.051c-0.025-0.187-0.326-2.023,0.027-3.517
		c0.176-0.751,1.193-5.041,1.193-5.041s-0.299-0.59-0.299-1.462c0-1.373,0.795-2.394,1.783-2.394c0.844,0,1.248,0.63,1.248,1.387
		c0,0.849-0.537,2.111-0.816,3.284c-0.23,0.981,0.492,1.781,1.461,1.781c1.752,0,2.936-2.252,2.936-4.916
		c0-2.03-1.369-3.547-3.852-3.547c-2.807,0-4.555,2.095-4.555,4.432c0,0.804,0.238,1.374,0.611,1.813
		c0.17,0.202,0.197,0.283,0.133,0.516c-0.047,0.169-0.146,0.579-0.188,0.742c-0.062,0.234-0.252,0.315-0.465,0.229
		c-1.291-0.526-1.893-1.941-1.893-3.532c0-2.626,2.215-5.777,6.609-5.777c3.533,0,5.855,2.555,5.855,5.299
		C146.119,17.94,144.104,20.65,141.129,20.65z"/>
</g>
</svg>
