<?xml version="1.0" encoding="utf-8"?>
<!-- Generator: Adobe Illustrator 16.0.0, SVG Export Plug-In . SVG Version: 6.00 Build 0)  -->
<!DOCTYPE svg PUBLIC "-//W3C//DTD SVG 1.1//EN" "http://www.w3.org/Graphics/SVG/1.1/DTD/svg11.dtd">
<svg version="1.1" id="Layer_1" xmlns="http://www.w3.org/2000/svg" xmlns:xlink="http://www.w3.org/1999/xlink" x="0px" y="0px"
	 width="16.104px" height="13.086px" viewBox="50.063 11.332 16.104 13.086" enable-background="new 50.063 11.332 16.104 13.086"
	 xml:space="preserve">
<g>
	<path fill="#99BED2" d="M64.518,14.59c0.006,0.142,0.01,0.283,0.01,0.425c0,4.367-3.324,9.402-9.4,9.402
		c-1.867,0-3.602-0.549-5.064-1.484c0.26,0.031,0.523,0.046,0.787,0.046c1.549,0,2.973-0.528,4.105-1.416
		c-1.445-0.025-2.668-0.98-3.086-2.292c0.199,0.039,0.406,0.059,0.621,0.059c0.303,0,0.594-0.039,0.869-0.117
		c-1.512-0.303-2.65-1.639-2.65-3.24c0-0.012,0-0.025,0-0.039c0.447,0.248,0.955,0.396,1.498,0.412
		c-0.887-0.594-1.471-1.605-1.471-2.75c0-0.604,0.164-1.172,0.449-1.661c1.625,1.997,4.062,3.315,6.807,3.453
		c-0.057-0.242-0.084-0.496-0.084-0.755c0-1.823,1.479-3.301,3.305-3.301c0.947,0,1.807,0.399,2.412,1.042
		c0.752-0.146,1.457-0.424,2.096-0.798c-0.246,0.769-0.771,1.417-1.451,1.824c0.666-0.079,1.305-0.257,1.896-0.52
		C65.723,13.543,65.16,14.125,64.518,14.59z"/>
</g>
</svg>
