<?xml version="1.0" encoding="utf-8"?>
<!-- Generator: Adobe Illustrator 16.0.0, SVG Export Plug-In . SVG Version: 6.00 Build 0)  -->
<!DOCTYPE svg PUBLIC "-//W3C//DTD SVG 1.1//EN" "http://www.w3.org/Graphics/SVG/1.1/DTD/svg11.dtd">
<svg version="1.1" id="Layer_1" xmlns="http://www.w3.org/2000/svg" xmlns:xlink="http://www.w3.org/1999/xlink" x="0px" y="0px"
	 width="69.183px" height="45.744px" viewBox="-7.553 18.08 69.183 45.744" enable-background="new -7.553 18.08 69.183 45.744"
	 xml:space="preserve">
<g>
	<path fill="#E96633" d="M11.087,19.211l46.841,0.054l2.124,36.415l-48.609,6.525L8.5,57.295l-0.146-0.244l-0.227-0.174
		l-4.023-3.091l-4.117-7.523L-5.78,29.712l2.719-2.088l4.282,0.99l2.681,5.092l0.216,0.411l0.41,0.217l7.244,3.832l3.082,1.63
		l-0.936-3.358l-1.941-6.971L11.087,19.211 M9.451,17.709l1.044,12.024l1.979,7.105l-7.244-3.832l-3.001-5.7l-5.641-1.305
		l-4.14,3.18l6.164,17.692l4.328,7.909l4.274,3.283l3.451,5.757l50.966-6.842l-2.287-39.215L9.451,17.709L9.451,17.709z"/>
</g>
<g>
	<path fill="#E96633" d="M188.593,19.586l2.064,0.009l2.539,0.743l2.467,5.577l0.478,1.08l1.161-0.211l4.424-0.804l21.79-4.57
		l13.586-0.039l2.771,2.695l-4.478,9.933l-0.312,0.695l0.377,0.663l1.908,3.353l-0.029,21.702l-51.966-0.459l-2.477-8.348
		l4.199-19.276l0.032-0.148l0.002-0.151l0.131-9.685l0.419-0.124l1.246-0.369l-0.188-1.286L188.593,19.586 M186.857,18.08
		l0.396,2.703l-1.478,0.438l-0.146,10.789l-4.281,19.653l2.901,9.779l54.585,0.482l0.032-23.61l-2.105-3.699l4.909-10.891
		l-3.962-3.854l-14.351,0.041l-21.94,4.602l-4.384,0.796l-2.748-6.214l-3.411-0.999L186.857,18.08L186.857,18.08z"/>
</g>
<g>
	<path fill="#E96633" d="M398.756,19.58l0.139,29.67v0.683l0.35,0.448l46.262,40.395l4.297,6.795l-2.889,13.339l-21.006,1.962
		l-4.036-6.721l-0.19-0.312l-0.312-0.191l-16.748-10.342l-0.233-0.144l-0.267-0.052l-5.042-0.991l-18.523-26.504l-0.218-2.485
		l1.046-0.534l1.429-0.73l-0.826-1.376l-1.578-2.63l-0.244-0.407l-0.434-0.192l-4.371-1.938l-5.848-8.184l-0.718-6.341l-0.038-0.332
		l-0.175-0.284l-4.913-7.986l2.068-14.593L398.756,19.58 M400.093,18.08l-35.747,0.024l-2.234,16.421l5.193,8.442l0.762,6.728
		l6.312,8.833l4.745,2.104l1.578,2.63l-1.945,0.994l0.341,3.891l19.1,27.328l5.636,1.107l16.748,10.342l4.517,7.529l23.03-2.151
		l3.229-15.017l-4.787-7.496l-46.506-40.536L400.093,18.08L400.093,18.08z"/>
</g>
</svg>
