<?xml version="1.0" encoding="utf-8"?>
<!-- Generator: Adobe Illustrator 16.0.0, SVG Export Plug-In . SVG Version: 6.00 Build 0)  -->
<!DOCTYPE svg PUBLIC "-//W3C//DTD SVG 1.1//EN" "http://www.w3.org/Graphics/SVG/1.1/DTD/svg11.dtd">
<svg version="1.1" id="Layer_1" xmlns="http://www.w3.org/2000/svg" xmlns:xlink="http://www.w3.org/1999/xlink" x="0px" y="0px"
	 width="73.758px" height="48.373px" viewBox="-4.574 0 73.758 48.373" enable-background="new -4.574 0 73.758 48.373"
	 xml:space="preserve">
<g>
	<path fill="#E96633" d="M16.451,0.625l1.044,12.024l1.979,7.104l-7.244-3.831l-3.001-5.7L3.587,8.917l-4.141,3.18L5.611,29.79
		l4.328,7.908l4.273,3.283l3.451,5.756l50.966-6.842L66.343,0.682L16.451,0.625L16.451,0.625z"/>
</g>
<g>
	<path fill="#E96633" d="M188.593,19.586l2.064,0.009l2.538,0.743l2.468,5.577l0.479,1.08l1.16-0.211l4.425-0.805l21.79-4.569
		l13.586-0.039l2.771,2.694l-4.479,9.934l-0.312,0.695l0.377,0.662l1.908,3.354l-0.029,21.702l-51.966-0.459l-2.478-8.349
		l4.199-19.275l0.031-0.148l0.002-0.15l0.131-9.684l0.42-0.124l1.245-0.369l-0.188-1.286L188.593,19.586 M186.857,18.08l0.396,2.703
		l-1.479,0.438l-0.146,10.79l-4.28,19.652l2.9,9.779l54.585,0.48l0.032-23.609l-2.104-3.699l4.908-10.891l-3.962-3.854
		l-14.352,0.041l-21.939,4.603l-4.384,0.797l-2.748-6.214l-3.411-0.999L186.857,18.08L186.857,18.08z"/>
</g>
<g>
	<path fill="#E96633" d="M398.756,19.58l0.14,29.67v0.683l0.351,0.448l46.263,40.396l4.297,6.795l-2.89,13.34l-21.007,1.962
		l-4.036-6.722l-0.188-0.312l-0.312-0.19l-16.747-10.342l-0.232-0.145l-0.268-0.053l-5.042-0.99l-18.522-26.506l-0.219-2.483
		l1.047-0.532l1.429-0.73l-0.825-1.377l-1.578-2.629l-0.244-0.407l-0.435-0.192l-4.37-1.938l-5.849-8.184l-0.719-6.343l-0.038-0.332
		l-0.175-0.282l-4.913-7.986l2.068-14.593L398.756,19.58 M400.093,18.08l-35.746,0.024l-2.234,16.42l5.193,8.441l0.762,6.729
		l6.312,8.834l4.745,2.104l1.578,2.631l-1.945,0.993l0.342,3.892L398.2,95.476l5.636,1.106l16.748,10.342l4.518,7.529l23.03-2.151
		l3.229-15.017l-4.787-7.496l-46.506-40.536L400.093,18.08L400.093,18.08z"/>
</g>
</svg>
